<svg xmlns="http://www.w3.org/2000/svg" xmlns:xlink="http://www.w3.org/1999/xlink" viewBox="0 0 634.301 304.731"><defs><style>.cls-1{fill:#f0f2f5;}.cls-2{fill:url(#linear-gradient);}.cls-3{isolation:isolate;}.cls-4{fill:#0065ff;}.cls-5,.cls-7,.cls-8{mix-blend-mode:soft-light;}.cls-6{fill:url(#linear-gradient-2);}.cls-7{fill:url(#N75);}.cls-8{fill:url(#N75-2);}.cls-9{opacity:0.25;}.cls-22,.cls-24,.cls-9{mix-blend-mode:multiply;}.cls-10{fill:url(#linear-gradient-3);}.cls-11{fill:#091e42;}.cls-12{fill:#344563;}.cls-13{clip-path:url(#clip-path);}.cls-14{fill:url(#linear-gradient-4);}.cls-15,.cls-16,.cls-19,.cls-22,.cls-23,.cls-26,.cls-27{fill:none;stroke-miterlimit:10;}.cls-15{stroke:#0065ff;stroke-width:5.413px;}.cls-15,.cls-16,.cls-26,.cls-27{stroke-linecap:round;}.cls-16{stroke:#a5adba;}.cls-16,.cls-19,.cls-22,.cls-23,.cls-26,.cls-27{stroke-width:2.706px;}.cls-17{fill:url(#linear-gradient-5);}.cls-18{fill:#2681ff;}.cls-19{stroke:#f0f2f5;}.cls-20{fill:#cfd4db;}.cls-21{clip-path:url(#clip-path-2);}.cls-22{stroke:#ffe380;}.cls-23{stroke:#ffc400;}.cls-24{fill:#ffe380;}.cls-25{fill:url(#linear-gradient-7);}.cls-26{stroke:#ffab00;}.cls-27{stroke:#344563;}.cls-28{fill:#6c798f;}.cls-29{fill:url(#linear-gradient-8);}.cls-30{fill:#253858;}.cls-31{fill:url(#linear-gradient-9);}.cls-32{fill:#a27f68;}.cls-33{fill:url(#radial-gradient);}.cls-34{fill:url(#radial-gradient-2);}.cls-35{fill:#172b4d;}.cls-36{fill:url(#New_Gradient_Swatch_13);}.cls-37{fill:url(#linear-gradient-10);}.cls-38{fill:#d4b696;}.cls-39{fill:url(#linear-gradient-11);}.cls-40{fill:url(#linear-gradient-12);}</style><linearGradient id="linear-gradient" x1="319.565" y1="87.056" x2="634.301" y2="87.056" gradientUnits="userSpaceOnUse"><stop offset="0.284" stop-color="#ffab00"/><stop offset="0.337" stop-color="#ffb418"/><stop offset="0.452" stop-color="#ffc647"/><stop offset="0.567" stop-color="#ffd56d"/><stop offset="0.681" stop-color="#ffe18b"/><stop offset="0.792" stop-color="#ffe9a1"/><stop offset="0.899" stop-color="#ffeeae"/><stop offset="1" stop-color="#fff0b2"/></linearGradient><linearGradient id="linear-gradient-2" x1="447.119" y1="250.128" x2="519.667" y2="250.128" gradientUnits="userSpaceOnUse"><stop offset="0" stop-color="#e5e8ec" stop-opacity="0.1"/><stop offset="0.558" stop-color="#e5e8ec"/></linearGradient><linearGradient id="N75" x1="485.849" y1="262.409" x2="516.588" y2="262.409" gradientUnits="userSpaceOnUse"><stop offset="0" stop-color="#e5e8ec"/><stop offset="1" stop-color="#e5e8ec" stop-opacity="0.1"/></linearGradient><linearGradient id="N75-2" x1="454.735" y1="233.639" x2="476.798" y2="233.639" xlink:href="#N75"/><linearGradient id="linear-gradient-3" x1="219.142" y1="295.44" x2="219.142" y2="229.61" gradientUnits="userSpaceOnUse"><stop offset="0" stop-color="#091e42"/><stop offset="0.194" stop-color="#091e42" stop-opacity="0.887"/><stop offset="0.486" stop-color="#091e42" stop-opacity="0.576"/><stop offset="0.838" stop-color="#091e42" stop-opacity="0.068"/><stop offset="0.88" stop-color="#091e42" stop-opacity="0"/></linearGradient><clipPath id="clip-path"><polygon id="_Clipping_Path_" data-name="&lt;Clipping Path&gt;" class="cls-1" points="211.333 263.49 102.373 71.293 268.588 71.293 377.548 263.49 211.333 263.49"/></clipPath><linearGradient id="linear-gradient-4" x1="200.397" y1="295.44" x2="200.397" y2="215.333" gradientUnits="userSpaceOnUse"><stop offset="0" stop-color="#e5e8ec"/><stop offset="0.1" stop-color="#e5e8ec" stop-opacity="0.953"/><stop offset="0.276" stop-color="#e5e8ec" stop-opacity="0.827"/><stop offset="0.508" stop-color="#e5e8ec" stop-opacity="0.622"/><stop offset="0.783" stop-color="#e5e8ec" stop-opacity="0.342"/><stop offset="1" stop-color="#e5e8ec" stop-opacity="0.1"/></linearGradient><linearGradient id="linear-gradient-5" x1="238.301" y1="88.976" x2="227.365" y2="70.035" gradientTransform="matrix(1.027, -0.001, -0.533, -0.973, 32.821, 317.309)" gradientUnits="userSpaceOnUse"><stop offset="0" stop-color="#0052cc"/><stop offset="0.92" stop-color="#2684ff"/></linearGradient><clipPath id="clip-path-2"><path id="_Clipping_Path_2" data-name="&lt;Clipping Path&gt;" class="cls-2" d="M320.514,153.82c-2.81-5.179.668-11.082,9.772-30.147,9-18.857,10.711-23.779,11.883-28.977a75.579,75.579,0,0,0,1.7-20.878c6.623-9.014,19.36-23.4,39.914-31.776a87.677,87.677,0,0,1,15.924-4.783q-1.932,26.229.44,26.623,2.928.488,12.412-38.367A184.448,184.448,0,0,1,455.987,14.89,188.123,188.123,0,0,1,537.044,23.3q-7.683,14.21-5.749,15.667Q533.558,40.676,549,24.9a128.079,128.079,0,0,1,85.3,63.159,152.955,152.955,0,0,0-57.286-22.276C520.81,56.39,476.745,82.312,463.909,90.527q-44.32-5.466-44.816-2.8-.45,2.425,35.424,11.588c-14.484,9.887-97.757,66.256-123.281,60.812C328.791,159.6,322.977,158.36,320.514,153.82Z"/></clipPath><linearGradient id="linear-gradient-7" x1="294.753" y1="120.377" x2="568" y2="120.377" gradientUnits="userSpaceOnUse"><stop offset="0.526" stop-color="#ff991f"/><stop offset="1" stop-color="#ffc400"/></linearGradient><linearGradient id="linear-gradient-8" x1="414.436" y1="95.386" x2="422.374" y2="95.386" gradientUnits="userSpaceOnUse"><stop offset="0" stop-color="#a27f68"/><stop offset="0.127" stop-color="#9d785d"/><stop offset="0.413" stop-color="#936c49"/><stop offset="0.701" stop-color="#8e643d"/><stop offset="0.992" stop-color="#8c6239"/></linearGradient><linearGradient id="linear-gradient-9" x1="396.782" y1="123.739" x2="396.782" y2="117.131" xlink:href="#linear-gradient-8"/><radialGradient id="radial-gradient" cx="382.849" cy="145.516" r="25.728" gradientTransform="translate(-4.993 215.752) rotate(-24.019) scale(1 0.644)" gradientUnits="userSpaceOnUse"><stop offset="0.393" stop-color="#00c7e5"/><stop offset="0.634" stop-color="#00a3bf"/></radialGradient><radialGradient id="radial-gradient-2" cx="396.546" cy="148.58" r="44.707" gradientTransform="translate(459.767 -257.428) rotate(83.661) scale(1 0.725)" xlink:href="#radial-gradient"/><linearGradient id="New_Gradient_Swatch_13" x1="376.544" y1="119.358" x2="419.875" y2="119.358" gradientUnits="userSpaceOnUse"><stop offset="0" stop-color="#00c7e5"/><stop offset="1" stop-color="#b3f5ff"/></linearGradient><linearGradient id="linear-gradient-10" x1="339.257" y1="224.56" x2="348.209" y2="247.783" gradientUnits="userSpaceOnUse"><stop offset="0.252" stop-color="#0065ff"/><stop offset="0.371" stop-color="#0065ff"/><stop offset="0.757" stop-color="#4c9aff"/></linearGradient><linearGradient id="linear-gradient-11" x1="327.911" y1="257.789" x2="327.911" y2="211.062" gradientUnits="userSpaceOnUse"><stop offset="0" stop-color="#4c9aff"/><stop offset="1" stop-color="#0065ff"/></linearGradient><linearGradient id="linear-gradient-12" x1="322.782" y1="215.318" x2="322.782" y2="162.615" gradientUnits="userSpaceOnUse"><stop offset="0" stop-color="#b2d4ff"/><stop offset="1" stop-color="#2684ff"/></linearGradient></defs><title>Creating Content</title><g class="cls-3"><g id="Layer_2" data-name="Layer 2"><g id="Layer_1-2" data-name="Layer 1"><path class="cls-1" d="M508.836,227.533l.091-10.491a4.373,4.373,0,0,1,4.411-4.335h0a6.426,6.426,0,0,0,6.481-6.369l.011-1.3a6.426,6.426,0,0,0-6.369-6.481l-59.3-.517a6.426,6.426,0,0,0-6.481,6.369l-.011,1.3a6.426,6.426,0,0,0,6.369,6.481h0a4.373,4.373,0,0,1,4.335,4.411l-.091,10.491a4.416,4.416,0,0,1-1.678,3.4,42.588,42.588,0,0,0-16.035,32.967q0,.557,0,1.111A30.284,30.284,0,0,0,470.72,294.1l24.511.214a30.284,30.284,0,0,0,30.658-29q.019-.554.024-1.111a42.588,42.588,0,0,0-15.459-33.241A4.416,4.416,0,0,1,508.836,227.533Z"/><path class="cls-4" d="M452.455,244.883a36.153,36.153,0,0,0-5.337,18.954q0,.134,0,.268a24,24,0,0,0,24.064,23.7H495.6a24,24,0,0,0,24.064-23.7q0-.134,0-.268a36.153,36.153,0,0,0-5.337-18.954Z"/><g class="cls-5"><path class="cls-6" d="M506.279,235.695a10.78,10.78,0,0,1-4.007-8.383V216.821a10.7,10.7,0,0,1,.931-4.373H463.583a10.707,10.707,0,0,1,.931,4.373v10.491a10.78,10.78,0,0,1-4.007,8.383,36.155,36.155,0,0,0-13.388,28.142c0,.316,0,.63.012.947.324,12.7,11.093,23.024,24.006,23.024h24.512c12.913,0,23.682-10.328,24.006-23.027q.012-.471.012-.944A36.155,36.155,0,0,0,506.279,235.695Z"/></g><path class="cls-7" d="M497.6,239.9c-1.445,1.633,9.15,8.239,9.216,17.255.1,13.29-22.763,21.125-20.855,25.944,1.138,2.875,10.357,2.815,17.13-.454,9.239-4.459,15.3-15.555,13.011-25.479-1.566-6.788-6.559-10.944-8.5-12.561C503.946,241.559,498.6,238.771,497.6,239.9Z"/><path class="cls-8" d="M469.228,215.3c-3.271,2.182,2.772,10.9-1.118,18.452-1.409,2.736-2.391,1.962-6.5,6.854-3.783,4.506-7.686,10.8-6.732,11.668,1.131,1.023,8.873-5.758,13.463-10.411,4-4.051,6.018-6.139,7.17-9.2,2.465-6.544,1.335-15.57-2.977-17.366C472.277,215.194,470.5,214.454,469.228,215.3Z"/><g class="cls-9"><path class="cls-10" d="M395.1,295.44H222.7a80.833,80.833,0,0,1-23.43-4.029L41.58,233.639c-6.028-2.225-5.312-4.029,1.6-4.029H215.588a80.833,80.833,0,0,1,23.43,4.029L396.7,291.411C402.731,293.636,402.015,295.44,395.1,295.44Z"/></g><path class="cls-11" d="M389.691,294.406H217.283c-6.912,0-15.48-5.231-19.138-11.683L79.711,73.816c-3.658-6.452-1.02-11.683,5.891-11.683H258.01c6.912,0,15.48,5.231,19.138,11.683L395.582,282.723C399.24,289.176,396.6,294.406,389.691,294.406Z"/><path class="cls-11" d="M389.745,294.352H217.337c-6.912,0-15.48-5.231-19.138-11.683L79.765,73.762c-3.658-6.452-1.02-11.683,5.891-11.683H258.064c6.912,0,15.48,5.231,19.138,11.683L395.636,282.669C399.294,289.122,396.656,294.352,389.745,294.352Z"/><path class="cls-11" d="M389.8,294.3H217.391c-6.912,0-15.48-5.231-19.138-11.683L79.819,73.707c-3.658-6.452-1.02-11.683,5.891-11.683H258.118c6.912,0,15.48,5.231,19.138,11.683L395.69,282.615C399.348,289.068,396.71,294.3,389.8,294.3Z"/><path class="cls-11" d="M389.853,294.244H217.445c-6.912,0-15.48-5.231-19.138-11.683L79.873,73.653C76.215,67.2,78.853,61.97,85.764,61.97H258.172c6.912,0,15.48,5.231,19.138,11.683L395.744,282.561C399.4,289.013,396.765,294.244,389.853,294.244Z"/><path class="cls-11" d="M389.907,294.19H217.5c-6.912,0-15.48-5.231-19.138-11.683L79.927,73.6c-3.658-6.452-1.02-11.683,5.891-11.683H258.226c6.912,0,15.48,5.231,19.138,11.683L395.8,282.507C399.456,288.959,396.819,294.19,389.907,294.19Z"/><path class="cls-11" d="M389.961,294.136H217.554c-6.912,0-15.48-5.231-19.138-11.683L79.981,73.545c-3.658-6.452-1.02-11.683,5.891-11.683H258.28c6.912,0,15.48,5.231,19.138,11.683L395.852,282.453C399.51,288.905,396.873,294.136,389.961,294.136Z"/><path class="cls-11" d="M390.015,294.082H217.608c-6.912,0-15.48-5.231-19.138-11.683L80.035,73.491c-3.658-6.452-1.02-11.683,5.891-11.683H258.334c6.912,0,15.48,5.231,19.138,11.683L395.907,282.4C399.565,288.851,396.927,294.082,390.015,294.082Z"/><path class="cls-11" d="M390.069,294.028H217.662c-6.912,0-15.48-5.231-19.138-11.683L80.09,73.437c-3.658-6.452-1.02-11.683,5.891-11.683H258.388c6.912,0,15.48,5.231,19.138,11.683L395.961,282.345C399.619,288.8,396.981,294.028,390.069,294.028Z"/><path class="cls-11" d="M390.124,293.973H217.716c-6.912,0-15.48-5.231-19.138-11.683L80.144,73.383C76.486,66.93,79.123,61.7,86.035,61.7H258.443c6.912,0,15.48,5.231,19.138,11.683L396.015,282.29C399.673,288.743,397.035,293.973,390.124,293.973Z"/><path class="cls-11" d="M390.178,293.919H217.77c-6.912,0-15.48-5.231-19.138-11.683L80.2,73.329c-3.658-6.452-1.02-11.683,5.891-11.683H258.5c6.912,0,15.48,5.231,19.138,11.683L396.069,282.236C399.727,288.689,397.089,293.919,390.178,293.919Z"/><path class="cls-11" d="M390.232,293.865H217.824c-6.912,0-15.48-5.231-19.138-11.683L80.252,73.274c-3.658-6.452-1.02-11.683,5.891-11.683H258.551c6.912,0,15.48,5.231,19.138,11.683L396.123,282.182C399.781,288.635,397.143,293.865,390.232,293.865Z"/><path class="cls-11" d="M390.286,293.811H217.878c-6.912,0-15.48-5.231-19.138-11.683L80.306,73.22c-3.658-6.452-1.02-11.683,5.891-11.683H258.6c6.912,0,15.48,5.231,19.138,11.683L396.177,282.128C399.835,288.58,397.2,293.811,390.286,293.811Z"/><path class="cls-11" d="M390.34,293.757H217.932c-6.912,0-15.48-5.231-19.138-11.683L80.36,73.166c-3.658-6.452-1.02-11.683,5.891-11.683H258.659c6.912,0,15.48,5.231,19.138,11.683L396.231,282.074C399.889,288.526,397.252,293.757,390.34,293.757Z"/><path class="cls-11" d="M390.394,293.7H217.987c-6.912,0-15.48-5.231-19.138-11.683L80.414,73.112c-3.658-6.452-1.02-11.683,5.891-11.683H258.713c6.912,0,15.48,5.231,19.138,11.683L396.285,282.02C399.943,288.472,397.306,293.7,390.394,293.7Z"/><path class="cls-11" d="M390.448,293.649H218.041c-6.912,0-15.48-5.231-19.138-11.683L80.468,73.058c-3.658-6.452-1.02-11.683,5.891-11.683H258.767c6.912,0,15.48,5.231,19.138,11.683L396.34,281.966C400,288.418,397.36,293.649,390.448,293.649Z"/><path class="cls-11" d="M390.5,293.595H218.095c-6.912,0-15.48-5.231-19.138-11.683L80.523,73c-3.658-6.452-1.02-11.683,5.891-11.683H258.821c6.912,0,15.48,5.231,19.138,11.683L396.394,281.912C400.052,288.364,397.414,293.595,390.5,293.595Z"/><path class="cls-11" d="M390.557,293.54H218.149c-6.912,0-15.48-5.231-19.138-11.683L80.577,72.95c-3.658-6.452-1.02-11.683,5.891-11.683H258.876c6.912,0,15.48,5.231,19.138,11.683L396.448,281.857C400.106,288.31,397.468,293.54,390.557,293.54Z"/><path class="cls-11" d="M390.611,293.486H218.2c-6.912,0-15.48-5.231-19.138-11.683L80.631,72.9c-3.658-6.452-1.02-11.683,5.891-11.683H258.93c6.912,0,15.48,5.231,19.138,11.683L396.5,281.8C400.16,288.256,397.522,293.486,390.611,293.486Z"/><path class="cls-11" d="M390.665,293.432H218.257c-6.912,0-15.48-5.231-19.138-11.683L80.685,72.841c-3.658-6.452-1.02-11.683,5.891-11.683H258.984c6.912,0,15.48,5.231,19.138,11.683L396.556,281.749C400.214,288.2,397.576,293.432,390.665,293.432Z"/><path class="cls-11" d="M390.719,293.378H218.311c-6.912,0-15.48-5.231-19.138-11.683L80.739,72.787C77.081,66.335,79.719,61.1,86.63,61.1H259.038c6.912,0,15.48,5.231,19.138,11.683L396.61,281.7C400.268,288.147,397.631,293.378,390.719,293.378Z"/><path class="cls-11" d="M390.773,293.324H218.366c-6.912,0-15.48-5.231-19.138-11.683L80.793,72.733c-3.658-6.452-1.02-11.683,5.891-11.683H259.092c6.912,0,15.48,5.231,19.138,11.683L396.664,281.641C400.322,288.093,397.685,293.324,390.773,293.324Z"/><path class="cls-11" d="M390.827,293.27H218.42c-6.912,0-15.48-5.231-19.138-11.683L80.847,72.679C77.189,66.227,79.827,61,86.739,61H259.146c6.912,0,15.48,5.231,19.138,11.683L396.718,281.587C400.376,288.039,397.739,293.27,390.827,293.27Z"/><path class="cls-11" d="M390.881,293.216H218.474c-6.912,0-15.48-5.231-19.138-11.683L80.9,72.625c-3.658-6.452-1.02-11.683,5.891-11.683H259.2c6.912,0,15.48,5.231,19.138,11.683L396.773,281.533C400.431,287.985,397.793,293.216,390.881,293.216Z"/><path class="cls-11" d="M390.935,293.162H218.528c-6.912,0-15.48-5.231-19.138-11.683L80.956,72.571c-3.658-6.452-1.02-11.683,5.891-11.683H259.254c6.912,0,15.48,5.231,19.138,11.683L396.827,281.479C400.485,287.931,397.847,293.162,390.935,293.162Z"/><path class="cls-11" d="M390.99,293.107H218.582c-6.912,0-15.48-5.231-19.138-11.683L81.01,72.517c-3.658-6.452-1.02-11.683,5.891-11.683H259.309c6.912,0,15.48,5.231,19.138,11.683L396.881,281.424C400.539,287.877,397.9,293.107,390.99,293.107Z"/><path class="cls-11" d="M391.044,293.053H218.636c-6.912,0-15.48-5.231-19.138-11.683L81.064,72.463c-3.658-6.452-1.02-11.683,5.891-11.683H259.363c6.912,0,15.48,5.231,19.138,11.683L396.935,281.37C400.593,287.823,397.955,293.053,391.044,293.053Z"/><path class="cls-11" d="M391.1,293H218.69c-6.912,0-15.48-5.231-19.138-11.683L81.118,72.408c-3.658-6.452-1.02-11.683,5.891-11.683H259.417c6.912,0,15.48,5.231,19.138,11.683L396.989,281.316C400.647,287.768,398.009,293,391.1,293Z"/><path class="cls-11" d="M391.152,292.945H218.744c-6.912,0-15.48-5.231-19.138-11.683L81.172,72.354c-3.658-6.452-1.02-11.683,5.891-11.683H259.471c6.912,0,15.48,5.231,19.138,11.683L397.043,281.262C400.7,287.714,398.064,292.945,391.152,292.945Z"/><path class="cls-11" d="M391.206,292.891H218.8c-6.912,0-15.48-5.231-19.138-11.683L81.226,72.3c-3.658-6.452-1.02-11.683,5.891-11.683H259.525c6.912,0,15.48,5.231,19.138,11.683L397.1,281.208C400.755,287.66,398.118,292.891,391.206,292.891Z"/><path class="cls-11" d="M391.26,292.837H218.853c-6.912,0-15.48-5.231-19.138-11.683L81.28,72.246c-3.658-6.452-1.02-11.683,5.891-11.683H259.579c6.912,0,15.48,5.231,19.138,11.683L397.151,281.154C400.809,287.606,398.172,292.837,391.26,292.837Z"/><path class="cls-11" d="M391.314,292.783H218.907c-6.912,0-15.48-5.231-19.138-11.683L81.335,72.192c-3.658-6.452-1.02-11.683,5.891-11.683H259.633c6.912,0,15.48,5.231,19.138,11.683L397.206,281.1C400.864,287.552,398.226,292.783,391.314,292.783Z"/><path class="cls-11" d="M391.368,292.728H218.961c-6.912,0-15.48-5.231-19.138-11.683L81.389,72.138c-3.658-6.452-1.02-11.683,5.891-11.683H259.687c6.912,0,15.48,5.231,19.138,11.683L397.26,281.045C400.918,287.5,398.28,292.728,391.368,292.728Z"/><path class="cls-11" d="M391.423,292.674H219.015c-6.912,0-15.48-5.231-19.138-11.683L81.443,72.084C77.785,65.631,80.422,60.4,87.334,60.4H259.742c6.912,0,15.48,5.231,19.138,11.683L397.314,280.991C400.972,287.444,398.334,292.674,391.423,292.674Z"/><path class="cls-11" d="M391.477,292.62H219.069c-6.912,0-15.48-5.231-19.138-11.683L81.5,72.029c-3.658-6.452-1.02-11.683,5.891-11.683H259.8c6.912,0,15.48,5.231,19.138,11.683L397.368,280.937C401.026,287.39,398.388,292.62,391.477,292.62Z"/><path class="cls-11" d="M391.531,292.566H219.123c-6.912,0-15.48-5.231-19.138-11.683L81.551,71.975c-3.658-6.452-1.02-11.683,5.891-11.683H259.85c6.912,0,15.48,5.231,19.138,11.683L397.422,280.883C401.08,287.335,398.442,292.566,391.531,292.566Z"/><path class="cls-11" d="M391.585,292.512H219.177c-6.912,0-15.48-5.231-19.138-11.683L81.605,71.921c-3.658-6.452-1.02-11.683,5.891-11.683H259.9c6.912,0,15.48,5.231,19.138,11.683L397.476,280.829C401.134,287.281,398.5,292.512,391.585,292.512Z"/><path class="cls-11" d="M391.639,292.458H219.232c-6.912,0-15.48-5.231-19.138-11.683L81.659,71.867C78,65.415,80.639,60.184,87.551,60.184H259.958c6.912,0,15.48,5.231,19.138,11.683L397.53,280.775C401.188,287.227,398.551,292.458,391.639,292.458Z"/><path class="cls-11" d="M391.693,292.4H219.286c-6.912,0-15.48-5.231-19.138-11.683L81.713,71.813C78.055,65.361,80.693,60.13,87.6,60.13H260.012c6.912,0,15.48,5.231,19.138,11.683L397.585,280.721C401.242,287.173,398.6,292.4,391.693,292.4Z"/><path class="cls-11" d="M391.747,292.35H219.34c-6.912,0-15.48-5.231-19.138-11.683L81.768,71.759c-3.658-6.452-1.02-11.683,5.891-11.683H260.066c6.912,0,15.48,5.231,19.138,11.683L397.639,280.667C401.3,287.119,398.659,292.35,391.747,292.35Z"/><path class="cls-11" d="M391.8,292.3H219.394c-6.912,0-15.48-5.231-19.138-11.683L81.822,71.7c-3.658-6.452-1.02-11.683,5.891-11.683H260.12c6.912,0,15.48,5.231,19.138,11.683L397.693,280.612C401.351,287.065,398.713,292.3,391.8,292.3Z"/><path class="cls-11" d="M391.856,292.241H219.448c-6.912,0-15.48-5.231-19.138-11.683L81.876,71.651c-3.658-6.452-1.02-11.683,5.891-11.683H260.175c6.912,0,15.48,5.231,19.138,11.683L397.747,280.558C401.4,287.011,398.767,292.241,391.856,292.241Z"/><path class="cls-11" d="M391.91,292.187H219.5c-6.912,0-15.48-5.231-19.138-11.683L81.93,71.6c-3.658-6.452-1.02-11.683,5.891-11.683H260.229c6.912,0,15.48,5.231,19.138,11.683L397.8,280.5C401.459,286.957,398.821,292.187,391.91,292.187Z"/><path class="cls-11" d="M391.964,292.133H219.556c-6.912,0-15.48-5.231-19.138-11.683L81.984,71.542c-3.658-6.452-1.02-11.683,5.891-11.683H260.283c6.912,0,15.48,5.231,19.138,11.683L397.855,280.45C401.513,286.9,398.876,292.133,391.964,292.133Z"/><path class="cls-11" d="M392.018,292.079H219.61c-6.912,0-15.48-5.231-19.138-11.683L82.038,71.488c-3.658-6.452-1.02-11.683,5.891-11.683H260.337c6.912,0,15.48,5.231,19.138,11.683L397.909,280.4C401.567,286.848,398.93,292.079,392.018,292.079Z"/><path class="cls-11" d="M392.072,292.025H219.665c-6.912,0-15.48-5.231-19.138-11.683L82.092,71.434c-3.658-6.452-1.02-11.683,5.891-11.683H260.391c6.912,0,15.48,5.231,19.138,11.683L397.963,280.342C401.621,286.794,398.984,292.025,392.072,292.025Z"/><path class="cls-11" d="M392.126,291.971H219.719c-6.912,0-15.48-5.231-19.138-11.683L82.146,71.38C78.488,64.928,81.126,59.7,88.038,59.7H260.445c6.912,0,15.48,5.231,19.138,11.683L398.018,280.288C401.676,286.74,399.038,291.971,392.126,291.971Z"/><path class="cls-11" d="M392.18,291.917H219.773c-6.912,0-15.48-5.231-19.138-11.683L82.2,71.326c-3.658-6.452-1.02-11.683,5.891-11.683H260.5c6.912,0,15.48,5.231,19.138,11.683L398.072,280.234C401.73,286.686,399.092,291.917,392.18,291.917Z"/><path class="cls-11" d="M392.235,291.862H219.827c-6.912,0-15.48-5.231-19.138-11.683L82.255,71.272c-3.658-6.452-1.02-11.683,5.891-11.683H260.554c6.912,0,15.48,5.231,19.138,11.683L398.126,280.179C401.784,286.632,399.146,291.862,392.235,291.862Z"/><path class="cls-11" d="M392.289,291.808H219.881c-6.912,0-15.48-5.231-19.138-11.683L82.309,71.218c-3.658-6.452-1.02-11.683,5.891-11.683H260.608c6.912,0,15.48,5.231,19.138,11.683L398.18,280.125C401.838,286.578,399.2,291.808,392.289,291.808Z"/><path class="cls-11" d="M392.343,291.754H219.935c-6.912,0-15.48-5.231-19.138-11.683L82.363,71.163C78.7,64.711,81.343,59.48,88.254,59.48H260.662c6.912,0,15.48,5.231,19.138,11.683L398.234,280.071C401.892,286.524,399.254,291.754,392.343,291.754Z"/><path class="cls-11" d="M392.4,291.7H219.989c-6.912,0-15.48-5.231-19.138-11.683L82.417,71.109c-3.658-6.452-1.02-11.683,5.891-11.683H260.716c6.912,0,15.48,5.231,19.138,11.683L398.288,280.017C401.946,286.469,399.309,291.7,392.4,291.7Z"/><path class="cls-11" d="M392.451,291.646H220.043c-6.912,0-15.48-5.231-19.138-11.683L82.471,71.055c-3.658-6.452-1.02-11.683,5.891-11.683H260.77c6.912,0,15.48,5.231,19.138,11.683L398.342,279.963C402,286.415,399.363,291.646,392.451,291.646Z"/><path class="cls-11" d="M392.505,291.592H220.1c-6.912,0-15.48-5.231-19.138-11.683L82.525,71c-3.658-6.452-1.02-11.683,5.891-11.683H260.824c6.912,0,15.48,5.231,19.138,11.683L398.4,279.909C402.054,286.361,399.417,291.592,392.505,291.592Z"/><path class="cls-11" d="M392.559,291.538H220.152c-6.912,0-15.48-5.231-19.138-11.683L82.579,70.947c-3.658-6.452-1.02-11.683,5.891-11.683H260.878c6.912,0,15.48,5.231,19.138,11.683L398.451,279.855C402.109,286.307,399.471,291.538,392.559,291.538Z"/><path class="cls-11" d="M392.613,291.484H220.206c-6.912,0-15.48-5.231-19.138-11.683L82.634,70.893c-3.658-6.452-1.02-11.683,5.891-11.683H260.932c6.912,0,15.48,5.231,19.138,11.683L398.5,279.8C402.163,286.253,399.525,291.484,392.613,291.484Z"/><path class="cls-11" d="M392.668,291.429H220.26c-6.912,0-15.48-5.231-19.138-11.683L82.688,70.839c-3.658-6.452-1.02-11.683,5.891-11.683H260.987c6.912,0,15.48,5.231,19.138,11.683L398.559,279.746C402.217,286.2,399.579,291.429,392.668,291.429Z"/><path class="cls-11" d="M392.722,291.375H220.314c-6.912,0-15.48-5.231-19.138-11.683L82.742,70.785C79.084,64.332,81.721,59.1,88.633,59.1H261.041c6.912,0,15.48,5.231,19.138,11.683L398.613,279.692C402.271,286.145,399.633,291.375,392.722,291.375Z"/><path class="cls-11" d="M392.776,291.321H220.368c-6.912,0-15.48-5.231-19.138-11.683L82.8,70.73c-3.658-6.452-1.02-11.683,5.891-11.683H261.095c6.912,0,15.48,5.231,19.138,11.683L398.667,279.638C402.325,286.091,399.687,291.321,392.776,291.321Z"/><path class="cls-11" d="M392.83,291.267H220.422c-6.912,0-15.48-5.231-19.138-11.683L82.85,70.676c-3.658-6.452-1.02-11.683,5.891-11.683H261.149c6.912,0,15.48,5.231,19.138,11.683L398.721,279.584C402.379,286.036,399.742,291.267,392.83,291.267Z"/><path class="cls-11" d="M392.884,291.213H220.476c-6.912,0-15.48-5.231-19.138-11.683L82.9,70.622c-3.658-6.452-1.02-11.683,5.891-11.683H261.2c6.912,0,15.48,5.231,19.138,11.683L398.775,279.53C402.433,285.982,399.8,291.213,392.884,291.213Z"/><path class="cls-11" d="M392.938,291.159H220.531c-6.912,0-15.48-5.231-19.138-11.683L82.958,70.568c-3.658-6.452-1.02-11.683,5.891-11.683H261.257c6.912,0,15.48,5.231,19.138,11.683L398.829,279.476C402.487,285.928,399.85,291.159,392.938,291.159Z"/><path class="cls-11" d="M392.992,291.1H220.585c-6.912,0-15.48-5.231-19.138-11.683L83.012,70.514c-3.658-6.452-1.02-11.683,5.891-11.683H261.311c6.912,0,15.48,5.231,19.138,11.683L398.884,279.422C402.542,285.874,399.9,291.1,392.992,291.1Z"/><path class="cls-11" d="M393.046,291.051H220.639c-6.912,0-15.48-5.231-19.138-11.683L83.067,70.46c-3.658-6.452-1.02-11.683,5.891-11.683H261.365c6.912,0,15.48,5.231,19.138,11.683L398.938,279.368C402.6,285.82,399.958,291.051,393.046,291.051Z"/><path class="cls-11" d="M393.1,291H220.693c-6.912,0-15.48-5.231-19.138-11.683L83.121,70.406c-3.658-6.452-1.02-11.683,5.891-11.683H261.42c6.912,0,15.48,5.231,19.138,11.683L398.992,279.313C402.65,285.766,400.012,291,393.1,291Z"/><path class="cls-11" d="M393.155,290.942H220.747c-6.912,0-15.48-5.231-19.138-11.683L83.175,70.352c-3.658-6.452-1.02-11.683,5.891-11.683H261.474c6.912,0,15.48,5.231,19.138,11.683L399.046,279.259C402.7,285.712,400.066,290.942,393.155,290.942Z"/><path class="cls-11" d="M393.209,290.888H220.8c-6.912,0-15.48-5.231-19.138-11.683L83.229,70.3c-3.658-6.452-1.02-11.683,5.891-11.683H261.528c6.912,0,15.48,5.231,19.138,11.683L399.1,279.205C402.758,285.657,400.12,290.888,393.209,290.888Z"/><path class="cls-11" d="M393.263,290.834H220.855c-6.912,0-15.48-5.231-19.138-11.683L83.283,70.243c-3.658-6.452-1.02-11.683,5.891-11.683H261.582c6.912,0,15.48,5.231,19.138,11.683L399.154,279.151C402.812,285.6,400.175,290.834,393.263,290.834Z"/><path class="cls-11" d="M393.317,290.78H220.91c-6.912,0-15.48-5.231-19.138-11.683L83.337,70.189c-3.658-6.452-1.02-11.683,5.891-11.683H261.636c6.912,0,15.48,5.231,19.138,11.683L399.208,279.1C402.866,285.549,400.229,290.78,393.317,290.78Z"/><path class="cls-11" d="M393.371,290.726H220.964c-6.912,0-15.48-5.231-19.138-11.683L83.391,70.135c-3.658-6.452-1.02-11.683,5.891-11.683H261.69c6.912,0,15.48,5.231,19.138,11.683L399.262,279.043C402.92,285.5,400.283,290.726,393.371,290.726Z"/><path class="cls-11" d="M393.425,290.672H221.018c-6.912,0-15.48-5.231-19.138-11.683L83.445,70.081C79.788,63.629,82.425,58.4,89.337,58.4H261.744c6.912,0,15.48,5.231,19.138,11.683L399.317,278.989C402.975,285.441,400.337,290.672,393.425,290.672Z"/><path class="cls-11" d="M393.479,290.618H221.072c-6.912,0-15.48-5.231-19.138-11.683L83.5,70.027c-3.658-6.452-1.02-11.683,5.891-11.683H261.8c6.912,0,15.48,5.231,19.138,11.683L399.371,278.935C403.029,285.387,400.391,290.618,393.479,290.618Z"/><path class="cls-11" d="M393.534,290.563H221.126c-6.912,0-15.48-5.231-19.138-11.683L83.554,69.973C79.9,63.52,82.533,58.29,89.445,58.29H261.853c6.912,0,15.48,5.231,19.138,11.683L399.425,278.88C403.083,285.333,400.445,290.563,393.534,290.563Z"/><path class="cls-11" d="M393.588,290.509H221.18c-6.912,0-15.48-5.231-19.138-11.683L83.608,69.919c-3.658-6.452-1.02-11.683,5.891-11.683H261.907c6.912,0,15.48,5.231,19.138,11.683L399.479,278.826C403.137,285.279,400.5,290.509,393.588,290.509Z"/><path class="cls-11" d="M393.642,290.455H221.234c-6.912,0-15.48-5.231-19.138-11.683L83.662,69.864C80,63.412,82.642,58.181,89.553,58.181H261.961c6.912,0,15.48,5.231,19.138,11.683L399.533,278.772C403.191,285.224,400.553,290.455,393.642,290.455Z"/><path class="cls-11" d="M393.7,290.4H221.288c-6.912,0-15.48-5.231-19.138-11.683L83.716,69.81c-3.658-6.452-1.02-11.683,5.891-11.683H262.015c6.912,0,15.48,5.231,19.138,11.683L399.587,278.718C403.245,285.17,400.608,290.4,393.7,290.4Z"/><path class="cls-11" d="M393.75,290.347H221.343c-6.912,0-15.48-5.231-19.138-11.683L83.77,69.756c-3.658-6.452-1.02-11.683,5.891-11.683H262.069c6.912,0,15.48,5.231,19.138,11.683L399.641,278.664C403.3,285.116,400.662,290.347,393.75,290.347Z"/><path class="cls-11" d="M393.8,290.293H221.4c-6.912,0-15.48-5.231-19.138-11.683L83.824,69.7c-3.658-6.452-1.02-11.683,5.891-11.683H262.123c6.912,0,15.48,5.231,19.138,11.683L399.7,278.61C403.353,285.062,400.716,290.293,393.8,290.293Z"/><path class="cls-11" d="M393.858,290.239H221.451c-6.912,0-15.48-5.231-19.138-11.683L83.879,69.648c-3.658-6.452-1.02-11.683,5.891-11.683H262.177c6.912,0,15.48,5.231,19.138,11.683L399.75,278.556C403.408,285.008,400.77,290.239,393.858,290.239Z"/><path class="cls-11" d="M393.912,290.184H221.5c-6.912,0-15.48-5.231-19.138-11.683L83.933,69.594c-3.658-6.452-1.02-11.683,5.891-11.683H262.231c6.912,0,15.48,5.231,19.138,11.683L399.8,278.5C403.462,284.954,400.824,290.184,393.912,290.184Z"/><path class="cls-11" d="M393.967,290.13H221.559c-6.912,0-15.48-5.231-19.138-11.683L83.987,69.54c-3.658-6.452-1.02-11.683,5.891-11.683H262.286c6.912,0,15.48,5.231,19.138,11.683L399.858,278.447C403.516,284.9,400.878,290.13,393.967,290.13Z"/><path class="cls-11" d="M394.021,290.076H221.613c-6.912,0-15.48-5.231-19.138-11.683L84.041,69.485C80.383,63.033,83.021,57.8,89.932,57.8H262.34c6.912,0,15.48,5.231,19.138,11.683L399.912,278.393C403.57,284.846,400.932,290.076,394.021,290.076Z"/><path class="cls-11" d="M394.075,290.022H221.667c-6.912,0-15.48-5.231-19.138-11.683L84.1,69.431c-3.658-6.452-1.02-11.683,5.891-11.683H262.394c6.912,0,15.48,5.231,19.138,11.683L399.966,278.339C403.624,284.791,400.986,290.022,394.075,290.022Z"/><path class="cls-11" d="M394.129,289.968H221.721c-6.912,0-15.48-5.231-19.138-11.683L84.149,69.377c-3.658-6.452-1.02-11.683,5.891-11.683H262.448c6.912,0,15.48,5.231,19.138,11.683L400.02,278.285C403.678,284.737,401.041,289.968,394.129,289.968Z"/><path class="cls-11" d="M394.183,289.914H221.776c-6.912,0-15.48-5.231-19.138-11.683L84.2,69.323c-3.658-6.452-1.02-11.683,5.891-11.683H262.5c6.912,0,15.48,5.231,19.138,11.683L400.074,278.231C403.732,284.683,401.095,289.914,394.183,289.914Z"/><path class="cls-11" d="M394.237,289.86H221.83c-6.912,0-15.48-5.231-19.138-11.683L84.257,69.269c-3.658-6.452-1.02-11.683,5.891-11.683H262.556c6.912,0,15.48,5.231,19.138,11.683L400.129,278.177C403.787,284.629,401.149,289.86,394.237,289.86Z"/><path class="cls-11" d="M394.291,289.806H221.884c-6.912,0-15.48-5.231-19.138-11.683L84.312,69.215c-3.658-6.452-1.02-11.683,5.891-11.683H262.61c6.912,0,15.48,5.231,19.138,11.683L400.183,278.123C403.841,284.575,401.2,289.806,394.291,289.806Z"/><path class="cls-11" d="M394.345,289.751H221.938c-6.912,0-15.48-5.231-19.138-11.683L84.366,69.161c-3.658-6.452-1.02-11.683,5.891-11.683H262.664c6.912,0,15.48,5.231,19.138,11.683L400.237,278.068C403.895,284.521,401.257,289.751,394.345,289.751Z"/><path class="cls-11" d="M394.4,289.7H221.992c-6.912,0-15.48-5.231-19.138-11.683L84.42,69.107c-3.658-6.452-1.02-11.683,5.891-11.683H262.719c6.912,0,15.48,5.231,19.138,11.683L400.291,278.014C403.949,284.467,401.311,289.7,394.4,289.7Z"/><path class="cls-11" d="M394.454,289.643H222.046c-6.912,0-15.48-5.231-19.138-11.683L84.474,69.052c-3.658-6.452-1.02-11.683,5.891-11.683H262.773c6.912,0,15.48,5.231,19.138,11.683L400.345,277.96C404,284.413,401.365,289.643,394.454,289.643Z"/><path class="cls-11" d="M394.508,289.589H222.1c-6.912,0-15.48-5.231-19.138-11.683L84.528,69c-3.658-6.452-1.02-11.683,5.891-11.683H262.827c6.912,0,15.48,5.231,19.138,11.683L400.4,277.906C404.057,284.358,401.42,289.589,394.508,289.589Z"/><path class="cls-11" d="M394.562,289.535H222.154c-6.912,0-15.48-5.231-19.138-11.683L84.582,68.944c-3.658-6.452-1.02-11.683,5.891-11.683H262.881c6.912,0,15.48,5.231,19.138,11.683L400.453,277.852C404.111,284.3,401.474,289.535,394.562,289.535Z"/><path class="cls-11" d="M394.616,289.481H222.209c-6.912,0-15.48-5.231-19.138-11.683L84.636,68.89c-3.658-6.452-1.02-11.683,5.891-11.683H262.935c6.912,0,15.48,5.231,19.138,11.683L400.507,277.8C404.165,284.25,401.528,289.481,394.616,289.481Z"/><path class="cls-11" d="M394.67,289.427H222.263c-6.912,0-15.48-5.231-19.138-11.683L84.69,68.836c-3.658-6.452-1.02-11.683,5.891-11.683H262.989c6.912,0,15.48,5.231,19.138,11.683L400.562,277.744C404.22,284.2,401.582,289.427,394.67,289.427Z"/><path class="cls-11" d="M394.724,289.373H222.317c-6.912,0-15.48-5.231-19.138-11.683L84.745,68.782C81.087,62.329,83.724,57.1,90.636,57.1H263.043c6.912,0,15.48,5.231,19.138,11.683L400.616,277.69C404.274,284.142,401.636,289.373,394.724,289.373Z"/><path class="cls-11" d="M394.779,289.318H222.371c-6.912,0-15.48-5.231-19.138-11.683L84.8,68.728c-3.658-6.452-1.02-11.683,5.891-11.683H263.1c6.912,0,15.48,5.231,19.138,11.683L400.67,277.635C404.328,284.088,401.69,289.318,394.779,289.318Z"/><path class="cls-11" d="M394.833,289.264H222.425c-6.912,0-15.48-5.231-19.138-11.683L84.853,68.674c-3.658-6.452-1.02-11.683,5.891-11.683H263.152c6.912,0,15.48,5.231,19.138,11.683L400.724,277.581C404.382,284.034,401.744,289.264,394.833,289.264Z"/><path class="cls-11" d="M394.887,289.21H222.479c-6.912,0-15.48-5.231-19.138-11.683L84.907,68.619c-3.658-6.452-1.02-11.683,5.891-11.683H263.206c6.912,0,15.48,5.231,19.138,11.683L400.778,277.527C404.436,283.98,401.8,289.21,394.887,289.21Z"/><path class="cls-11" d="M394.941,289.156H222.533c-6.912,0-15.48-5.231-19.138-11.683L84.961,68.565c-3.658-6.452-1.02-11.683,5.891-11.683H263.26c6.912,0,15.48,5.231,19.138,11.683L400.832,277.473C404.49,283.925,401.853,289.156,394.941,289.156Z"/><path class="cls-11" d="M395,289.1H222.587c-6.912,0-15.48-5.231-19.138-11.683L85.015,68.511c-3.658-6.452-1.02-11.683,5.891-11.683H263.314c6.912,0,15.48,5.231,19.138,11.683L400.886,277.419C404.544,283.871,401.907,289.1,395,289.1Z"/><path class="cls-11" d="M395.049,289.048H222.642c-6.912,0-15.48-5.231-19.138-11.683L85.069,68.457C81.411,62,84.049,56.774,90.961,56.774H263.368c6.912,0,15.48,5.231,19.138,11.683L400.94,277.365C404.6,283.817,401.961,289.048,395.049,289.048Z"/><path class="cls-11" d="M395.1,288.994H222.7c-6.912,0-15.48-5.231-19.138-11.683L85.123,68.4C81.465,61.951,84.1,56.72,91.015,56.72H263.422c6.912,0,15.48,5.231,19.138,11.683L400.995,277.311C404.653,283.763,402.015,288.994,395.1,288.994Z"/><path class="cls-12" d="M395.1,288.994H222.7c-6.912,0-15.48-5.231-19.138-11.683L85.123,68.4C81.465,61.951,84.1,56.72,91.015,56.72H263.422c6.912,0,15.48,5.231,19.138,11.683L400.995,277.311C404.653,283.763,402.015,288.994,395.1,288.994Z"/><polygon id="_Clipping_Path_3" data-name="&lt;Clipping Path&gt;" class="cls-1" points="211.333 263.49 102.373 71.293 268.588 71.293 377.548 263.49 211.333 263.49"/><g class="cls-13"><path class="cls-14" d="M395.1,295.44H222.7a80.833,80.833,0,0,1-23.43-4.029L4.091,219.362c-6.028-2.225-5.312-4.029,1.6-4.029H178.1a80.833,80.833,0,0,1,23.43,4.029L396.7,291.411C402.731,293.636,402.015,295.44,395.1,295.44Z"/><path class="cls-15" d="M151.232,125.187c9.566,0,13.576,7.074,23.142,7.074s5.556-7.074,15.123-7.074,13.578,7.074,23.145,7.074,5.557-7.074,15.125-7.074,13.578,7.074,23.145,7.074,5.558-7.074,15.127-7.074,13.579,7.074,23.148,7.074"/><path class="cls-15" d="M166.027,151.283c9.566,0,13.576,7.074,23.142,7.074s5.556-7.074,15.123-7.074,13.578,7.074,23.145,7.074,5.557-7.074,15.125-7.074,13.578,7.074,23.145,7.074,5.558-7.074,15.127-7.074,13.579,7.074,23.148,7.074"/><path class="cls-15" d="M180.821,177.379c9.566,0,13.576,7.074,23.142,7.074s5.556-7.074,15.123-7.074,13.578,7.074,23.145,7.074,5.557-7.074,15.125-7.074,13.578,7.074,23.145,7.074"/><path class="cls-15" d="M136.438,99.092c9.566,0,13.576,7.074,23.142,7.074s5.556-7.074,15.123-7.074,13.578,7.074,23.145,7.074,5.557-7.074,15.125-7.074,13.578,7.074,23.145,7.074,5.558-7.074,15.127-7.074,13.579,7.074,23.148,7.074"/><line class="cls-16" x1="357.282" y1="292.722" x2="393.524" y2="181.09"/><line class="cls-16" x1="389.9" y1="192.253" x2="364.402" y2="192.253"/><line class="cls-16" x1="386.276" y1="203.416" x2="360.778" y2="203.416"/><line class="cls-16" x1="382.652" y1="214.579" x2="357.153" y2="214.579"/><line class="cls-16" x1="379.027" y1="225.743" x2="353.529" y2="225.743"/><line class="cls-16" x1="375.403" y1="236.906" x2="349.905" y2="236.906"/><line class="cls-16" x1="371.779" y1="248.069" x2="346.281" y2="248.069"/><line class="cls-16" x1="368.155" y1="259.232" x2="342.657" y2="259.232"/><line class="cls-16" x1="364.53" y1="270.395" x2="339.032" y2="270.395"/><line class="cls-16" x1="360.906" y1="281.558" x2="335.408" y2="281.558"/><line class="cls-16" x1="357.282" y1="292.722" x2="331.784" y2="292.722"/><line class="cls-16" x1="331.784" y1="292.722" x2="368.026" y2="181.09"/><g id="Layer_2-2" data-name="Layer 2"><g id="Blue"><path class="cls-17" d="M222.7,227.332c-1.007-.655-2.007-.618-1.977.228l.392,20.157a2.147,2.147,0,0,0,1.453,1.615,1.839,1.839,0,0,0,.64.127l14.823-.02c.493.008.794-.258.768-.678C238.57,242.513,231.421,233,222.7,227.332Z"/><path class="cls-18" d="M221.463,208.992c-1.062,8.937,4.75,18.827,12.74,26.245l14.559,13.519a2.376,2.376,0,0,0,1.509.675l14.823-.02c.7,0,.978-.54.614-1.2a2.176,2.176,0,0,0-.43-.54s-40.638-37.744-41.643-38.684C222.711,208.137,221.562,208.12,221.463,208.992Z"/></g></g></g><path class="cls-19" d="M312.432,276.334c2.5,4.4.7,7.973-4.02,7.973s-10.564-3.569-13.06-7.973-.7-7.973,4.02-7.973S309.936,271.931,312.432,276.334Z"/><path class="cls-20" d="M119.058,78.128c.912,1.609.254,2.913-1.469,2.913a6.135,6.135,0,0,1-4.771-2.913c-.912-1.609-.254-2.913,1.469-2.913A6.135,6.135,0,0,1,119.058,78.128Z"/><path class="cls-20" d="M127.673,78.128c.912,1.609.254,2.913-1.469,2.913a6.135,6.135,0,0,1-4.771-2.913c-.912-1.609-.254-2.913,1.469-2.913A6.135,6.135,0,0,1,127.673,78.128Z"/><path class="cls-20" d="M136.288,78.128c.912,1.609.254,2.913-1.469,2.913a6.135,6.135,0,0,1-4.771-2.913c-.912-1.609-.254-2.913,1.469-2.913A6.135,6.135,0,0,1,136.288,78.128Z"/><path class="cls-20" d="M144.9,78.128c.912,1.609.254,2.913-1.469,2.913a6.135,6.135,0,0,1-4.771-2.913c-.912-1.609-.254-2.913,1.469-2.913A6.135,6.135,0,0,1,144.9,78.128Z"/><path id="_Clipping_Path_4" data-name="&lt;Clipping Path&gt;" class="cls-2" d="M320.514,153.82c-2.81-5.179.668-11.082,9.772-30.147,9-18.857,10.711-23.779,11.883-28.977a75.579,75.579,0,0,0,1.7-20.878c6.623-9.014,19.36-23.4,39.914-31.776a87.677,87.677,0,0,1,15.924-4.783q-1.932,26.229.44,26.623,2.928.488,12.412-38.367A184.448,184.448,0,0,1,455.987,14.89,188.123,188.123,0,0,1,537.044,23.3q-7.683,14.21-5.749,15.667Q533.558,40.676,549,24.9a128.079,128.079,0,0,1,85.3,63.159,152.955,152.955,0,0,0-57.286-22.276C520.81,56.39,476.745,82.312,463.909,90.527q-44.32-5.466-44.816-2.8-.45,2.425,35.424,11.588c-14.484,9.887-97.757,66.256-123.281,60.812C328.791,159.6,322.977,158.36,320.514,153.82Z"/><g class="cls-21"><line class="cls-22" x1="486.243" y1="3.812" x2="465.334" y2="56.831"/><line class="cls-22" x1="500.782" y1="0.496" x2="479.873" y2="53.516"/><line class="cls-23" x1="424.377" y1="12.824" x2="410.068" y2="78.397"/><line class="cls-22" x1="465.334" y1="56.831" x2="506.041" y2="79.439"/><line class="cls-23" x1="360.511" y1="117.18" x2="418.164" y2="129.53"/><line class="cls-23" x1="368.503" y1="105.935" x2="431.535" y2="118.859"/><path class="cls-24" d="M417.837,105.307c-.059-1.146-.15-2.726-.3-4.615a1.983,1.983,0,0,0-3.7.223,43.079,43.079,0,0,1-3.11,18.884c-2.769,1.853-7.751,4.483-13.324,3.438a13.839,13.839,0,0,1-1.427-.347,4.843,4.843,0,0,1-.26-1.735,4.665,4.665,0,0,1,.061-.589,3.967,3.967,0,0,1,.775-1.167c.826-.873,1.292-.71,1.889-1.33,1.1-1.146.96-3.21.491-4.506a4.688,4.688,0,0,0-1.57-2.2,4.479,4.479,0,0,0-2.736-.928,8.351,8.351,0,0,1-1.391.141c-1.031-.082-1.315-.548-1.75-.344-.555.26-.762,1.333-.462,2.057a7.5,7.5,0,0,0-.37.722c-.091.226-.235.6-.4,1.061a5.263,5.263,0,0,1-.578,1.476l-.873.862a5.935,5.935,0,0,0,.8.676,1.47,1.47,0,0,0-.192.542,1.711,1.711,0,0,0,.059.65c.165.82-.166,1.093.057,1.5a1.134,1.134,0,0,0,.751.513c.43.058.815.1,1.154.126a3.151,3.151,0,0,1-.072.5,3.753,3.753,0,0,1-.507,1.2h0c-.13-.016-.328-.039-.568-.058-.608-.048-1.049-.04-1.179-.041a4.569,4.569,0,0,1-2.026-.537c-1.274-.717-1.069-1.789-2.374-2.366-.6-.266-.783-.1-1.181-.426-.624-.515-.386-1.1-1.051-1.844-.442-.5-.618-.315-1.182-.878a9.072,9.072,0,0,1-1.036-1.578,3.99,3.99,0,0,0-1.907-1.343c.133-.549.357-1.419.695-2.465,1.578-4.888,3.786-7.934,3.159-9.213.022-.069.044-.141.065-.2a1.947,1.947,0,0,0,.141-.857.906.906,0,0,0-.506-.725c-.313-.136-.69-.051-.994-.2a2.626,2.626,0,0,1-.364-.267,2,2,0,0,0-1.268-.334,7.506,7.506,0,0,0-1.29.222,27.649,27.649,0,0,1-3.248.445,1.384,1.384,0,0,0-.645.168.4.4,0,0,0-.141.555c.217.292.865.248.874.593.006.227-.329.343-.332.57,0,.2.254.329.471.371s.471.074.59.251c.077.114.04.177.108.3.043.08.168.251.6.331a2.432,2.432,0,0,0,.795,0,25.377,25.377,0,0,0-1.482,4.127,39.212,39.212,0,0,0-1.709,6.807,2.27,2.27,0,0,0,.28,1.389,35.1,35.1,0,0,0,6,8.042,40.266,40.266,0,0,0,6.165,4.649,17.183,17.183,0,0,1-.287,3.788c-.467,2.448-1.232,3.469-1.55,5.873a14.359,14.359,0,0,0-.068,3.133c.057.05.13.1.19.156l-18,6.49a2.444,2.444,0,0,0-1.349,1.171,62.33,62.33,0,0,0-6.9,25.587l1.024.143c-1,.472-4.807.372-5.815,1.5a1.935,1.935,0,0,0-.285.567c2.6.318,2.651.336,5.253.653.119-.287.453-.523.666-.413a.476.476,0,0,1,.222.5l3.091.363.316-2.688h0q1.956-5.858,3.878-11.863,1.525-4.767,2.979-9.473c1.86-.158,3.368-.3,4.345-.389,3.573-.337,7.385-.7,11.659-1.246.026.755.048,1.523.06,2.318.05,3.251-.044,5.631-.143,8.046a116.406,116.406,0,0,1-2.682,22.948c-.295,1.27-.563,2.308-.743,2.984l.865.142-.553,2.787,3.209.637a.5.5,0,0,1,.383-.428c.249-.041.506.3.532.629,2.705.524,2.76.522,5.465,1.046a2.029,2.029,0,0,0-.1-.659c-.655-1.481-4.624-2.626-5.38-3.425l-1.435-.238,2.144.351a145.558,145.558,0,0,0,5.148-21.2c.471-2.914,1.015-6.918,2.749-18.218.377-2.454.69-4.472.9-5.805a7.7,7.7,0,0,0,2.079-4.257c.167-1.461-.279-2.175.282-3.515.5-1.206,1.175-1.371,1.579-2.523a4.786,4.786,0,0,0-.044-3,26.448,26.448,0,0,0,11.891-4.761,25.539,25.539,0,0,0,4.05-3.687,2.623,2.623,0,0,0,.61-1.243A71.038,71.038,0,0,0,417.837,105.307Z"/></g><path class="cls-25" d="M302.317,191.969a.739.739,0,0,0-.107-.018,7.32,7.32,0,0,0-5.454,1.482c-1.008.779-1.969,1.511-2,1.494,33.867-67.78,93.129-105.711,123.873-121a268.354,268.354,0,0,1,90.015-26.4,272.926,272.926,0,0,1,58.006-.3,1.51,1.51,0,0,1,1.343,1.665h0a1.5,1.5,0,0,1-1.649,1.331,269.951,269.951,0,0,0-57.367.3,265.352,265.352,0,0,0-89.009,26.106C352.783,110.029,317.418,163.23,302.317,191.969Z"/><line class="cls-16" x1="368.398" y1="258.481" x2="393.524" y2="181.09"/><line class="cls-16" x1="389.9" y1="192.253" x2="364.402" y2="192.253"/><line class="cls-16" x1="386.276" y1="203.416" x2="360.778" y2="203.416"/><line class="cls-16" x1="382.652" y1="214.579" x2="357.153" y2="214.579"/><line class="cls-16" x1="379.027" y1="225.743" x2="353.529" y2="225.743"/><line class="cls-16" x1="375.403" y1="236.906" x2="349.905" y2="236.906"/><line class="cls-16" x1="342.351" y1="260.174" x2="368.026" y2="181.09"/><line class="cls-26" x1="415.415" y1="303.378" x2="375.42" y2="181.09"/><line class="cls-26" x1="379.045" y1="192.146" x2="404.543" y2="192.146"/><line class="cls-26" x1="382.669" y1="203.202" x2="408.167" y2="203.202"/><line class="cls-26" x1="386.293" y1="214.257" x2="411.791" y2="214.257"/><line class="cls-26" x1="389.917" y1="225.313" x2="415.415" y2="225.313"/><line class="cls-26" x1="393.542" y1="236.369" x2="419.04" y2="236.369"/><line class="cls-26" x1="397.166" y1="247.425" x2="422.664" y2="247.425"/><line class="cls-26" x1="400.79" y1="258.481" x2="426.288" y2="258.481"/><line class="cls-26" x1="404.414" y1="269.537" x2="429.912" y2="269.537"/><line class="cls-26" x1="408.039" y1="280.593" x2="433.537" y2="280.593"/><line class="cls-26" x1="411.663" y1="291.649" x2="437.161" y2="291.649"/><line class="cls-26" x1="440.515" y1="302.16" x2="400.919" y2="181.09"/><line class="cls-27" x1="373.797" y1="181.09" x2="403.084" y2="181.09"/><rect class="cls-28" x="365.018" y="179.739" width="9.708" height="2.695" rx="1.347" ry="1.347"/><path class="cls-29" d="M414.507,96.528a1.491,1.491,0,0,1,.223-1.366,2.229,2.229,0,0,1,.942-.555q2.693-1.029,5.434-1.927a3.32,3.32,0,0,1,1.268-.236,4.747,4.747,0,0,1-.92,1.751l.376.072c.206.3-.06.7-.316.957a25.783,25.783,0,0,1-2.569,2.282,3.787,3.787,0,0,1-1.259.723A2.511,2.511,0,0,1,414.507,96.528Z"/><path class="cls-30" d="M393.651,112.183a1.853,1.853,0,0,1-.3-.376,1.766,1.766,0,0,1,.188-2.124c.409-.263.756.167,1.8.111a8.459,8.459,0,0,0,1.376-.327,4.532,4.532,0,0,1,2.868.565,4.743,4.743,0,0,1,1.868,2c.643,1.237,1.061,3.288.109,4.584-.516.7-1,.6-1.716,1.586-.742,1.028-.53,1.581-.956,1.76-1.19.5-3.97-3.339-4.671-5.323C394.08,114.254,394.378,112.979,393.651,112.183Z"/><path class="cls-31" d="M393.093,122.006c.049-.175.327-.369,1.421-.395a3.751,3.751,0,0,0,.344-1.255,10.022,10.022,0,0,0-.118-1.475c.072-.579,1.087-1.258,5.083-1.751a5.006,5.006,0,0,0-.612,2.881,4.843,4.843,0,0,0,.487,1.685c.6.071.749.21.775.322.1.41-1.259,1.156-2.455,1.48a5,5,0,0,1-2.758.076C394.136,123.258,392.972,122.442,393.093,122.006Z"/><path class="cls-12" d="M405.029,191.272a2.028,2.028,0,0,0-.187-.64c-.844-1.382-4.93-1.993-5.785-2.686l-3.6-.115q-.09,1.42-.18,2.839l3.265.208a.5.5,0,0,1,.323-.474c.241-.074.542.233.611.553C402.225,191.119,402.278,191.11,405.029,191.272Z"/><path class="cls-32" d="M383.24,101.974a1.947,1.947,0,0,0,.026-.869.906.906,0,0,0-.6-.652c-.328-.093-.69.041-1.012-.071a2.623,2.623,0,0,1-.4-.217,2,2,0,0,0-1.3-.163,7.506,7.506,0,0,0-1.249.39,27.655,27.655,0,0,1-3.161.87,1.384,1.384,0,0,0-.617.252.4.4,0,0,0-.067.569c.253.26.891.132.945.472.036.224-.281.384-.254.608.024.2.295.292.515.305s.477.011.618.171c.091.1.063.17.147.286.054.073.2.227.642.249a8.124,8.124,0,0,0,1.848-.4c.953-.162,1.057.306,2.156.136a1.952,1.952,0,0,0,1.343-.579A3.337,3.337,0,0,0,383.24,101.974Z"/><path class="cls-12" d="M364.381,179.985a1.933,1.933,0,0,1,.207-.6c.865-1.275,4.776-1.669,5.62-2.288l3.428.055.042,2.706-3.112.048a.476.476,0,0,0-.286-.466c-.226-.081-.525.2-.606.5C367.053,179.968,367,179.957,364.381,179.985Z"/><path class="cls-33" d="M391.049,140.544l-17.286,8.966a2.444,2.444,0,0,0-1.182,1.339,62.33,62.33,0,0,0-3.461,26.274l4.516.03q1.166-6.065,2.278-12.27.883-4.927,1.7-9.783c1.823-.4,3.3-.739,4.256-.959,5.018-1.155,10.492-2.423,17.082-4.357,1.267-.372,2.283-.682,2.859-.86a12.257,12.257,0,0,0,.371-1.81,16.9,16.9,0,0,0,.081-2.541c-.007-.691-.012-1.737,0-3.052a29.39,29.39,0,0,1-11.216-.975Z"/><path class="cls-32" d="M392.434,115.255l-.761.981h0a6,6,0,0,0,.888.572,1.488,1.488,0,0,0-.12.57,1.731,1.731,0,0,0,.146.644c.275.8-.02,1.118.258,1.5a1.147,1.147,0,0,0,.822.414c.811,0,1.474-.039,1.93-.077,1.821-.152,2.869-.252,3.432-.934a10.341,10.341,0,0,0,.631-.914c.191-.307.334-.569.426-.745a.774.774,0,0,1-.37-.313c-.27-.475.265-1.005-.006-1.509a.614.614,0,0,0-.52-.348c-.258.017-.5.34-.591.816a1.084,1.084,0,0,1-.924,1.244.937.937,0,0,1-.718-.625c.879-2.116.888-3.8.193-4.217-.369-.221-.734-.05-1.091.083-.613.228-1.66.421-2.121-.2-.233-.315-.2-.8-.336-.812-.042,0-.1.044-.252.424a7.6,7.6,0,0,0-.274.773c-.061.239-.156.629-.257,1.117A5.319,5.319,0,0,1,392.434,115.255Z"/><path class="cls-34" d="M402.525,141.98c-.03,1.348-.074,3.39-.123,5.873-.227,11.43-.239,15.471-.321,18.422a145.557,145.557,0,0,1-2.306,21.692l-5.2-.157c.089-.695.218-1.758.343-3.056a116.406,116.406,0,0,0-.369-23.1c-.221-2.407-.442-4.778-.92-7.995a121.376,121.376,0,0,0-2.57-12.637Z"/><path class="cls-35" d="M407.882,113.033"/><path class="cls-36" d="M380.924,114.269a3.99,3.99,0,0,1,2.068,1.08c.5.513.567.918,1.235,1.428.633.483.784.282,1.288.714.757.65.6,1.262,1.285,1.69.437.272.594.082,1.227.267,1.369.4,1.308,1.49,2.665,2.032a4.569,4.569,0,0,0,2.079.265c.129-.017.565-.083,1.174-.115.241-.013.44-.017.571-.018a3.334,3.334,0,0,0,2.149,1.326A3.534,3.534,0,0,0,399.7,121.7a13.832,13.832,0,0,0,1.46.156c5.663.3,10.254-2.964,12.754-5.166a43.079,43.079,0,0,0,.591-19.129,1.983,1.983,0,0,1,3.634-.709c.393,1.854.693,3.408.9,4.536a71.038,71.038,0,0,1,.718,15.11,2.623,2.623,0,0,1-.44,1.313A25.539,25.539,0,0,1,415.79,122a26.449,26.449,0,0,1-11.159,6.289,4.786,4.786,0,0,1,.44,2.968c-.248,1.195-.892,1.447-1.232,2.709-.378,1.4.158,2.052.185,3.522a7.7,7.7,0,0,1-1.5,4.494,13.723,13.723,0,0,1-7.937.408,13.223,13.223,0,0,1-4.052-1.815,14.36,14.36,0,0,1-.346-3.115c0-2.425.622-3.538.761-6.026a17.183,17.183,0,0,0-.215-3.792,40.268,40.268,0,0,1-6.724-3.795,35.1,35.1,0,0,1-7.007-7.18,2.271,2.271,0,0,1-.461-1.34,39.213,39.213,0,0,1,.8-6.973c.85-5.938,2.149-6.735,2.742-6.865a4.668,4.668,0,0,1,1.719.028,3.187,3.187,0,0,1,1.244.485c1.157,1-.788,4.394-1.759,9.734C381.09,112.816,380.982,113.707,380.924,114.269Z"/><path class="cls-37" d="M338.1,210.918c.76,1.441,1.5,2.969,2.2,4.585a69.639,69.639,0,0,1,5.179,18.8l6.093,23.271-3.367.978a138.031,138.031,0,0,0-8.139-22.081c-.458-.95-.912-1.926-1.81-3.882-5.458-11.884-6.024-14-5.385-16.142C333.25,215.177,334.321,212.954,338.1,210.918Z"/><path class="cls-38" d="M304.147,182.7c.5.539,1.847.366,2.552-.375a2.334,2.334,0,0,0,.552-1.727c-.04-.658-.311-.718-.485-1.422-.355-1.434.413-2.626.084-2.807-.08-.044-.234-.033-.559.234a.325.325,0,0,0-.232-.137c-.215,0-.371.369-.442.54a26.138,26.138,0,0,0-1.221,3.214C304.064,181.693,303.9,182.435,304.147,182.7Z"/><path class="cls-38" d="M308.3,179.182a2.17,2.17,0,0,1-.236,1.138c-.3.581-1.225,2.395-1.829,2.214-.289-.086-.38-.6-.385-.86-.01-.5.631-.758.729-1.32.021-.123.037-.188.068-.317.076-.319.116-.479.188-.5.148-.036.259.342.475.35.381.015.643-1.163.855-1.123C308.263,178.788,308.287,179.08,308.3,179.182Z"/><path class="cls-38" d="M304.574,178.17a3.869,3.869,0,0,0-.194,1.413c-.091,1.741-.428,2.816-.3,2.85.075.02.227-.328.307-.518.648-1.533,1.715-4.778,1.242-4.972C305.4,176.845,304.835,177.522,304.574,178.17Z"/><path class="cls-39" d="M327.322,213.376a177.55,177.55,0,0,0-12,44.378l3.62.035c.743-2.929,1.846-7.108,3.317-12.109,1.157-3.934,1.64-6.716,3.4-10.407a25.532,25.532,0,0,1,2.713-4.823c4.169-5.569,8.7-5.451,11.123-10.193.422-.828,1.453-2.849.815-4.753-.1-.292-.355-.826-.863-1.883-.522-1.088-.966-1.971-1.265-2.557a36.241,36.241,0,0,1-10.851,2.314Z"/><path class="cls-12" d="M315.258,255.156a24.618,24.618,0,0,1-.752,3.962h0a4.242,4.242,0,0,1-3.459,3.062l-3.123.468-.024.544,4.866,1.174c.443-.084,1.7-.3,1.875.095.038.086.036.228-.137.473q.662.136,1.362.244a.977.977,0,0,0,1.077-.661c.685-2.094,2.527-7.761,2.637-8.567Z"/><path class="cls-12" d="M347.42,256.67c.231.461.67,1.68,1.078,2.9a4.67,4.67,0,0,1-1.355,4.995l-1.671,1.461.249.43,4.314-1.491c.3-.283,1.16-1.065,1.486-.849.071.047.14.157.128.43.593-.228,1.2-.486,1.815-.78l.153-.364c-.066-.19-.146-.428-.232-.7-.786-2.463-1.871-6.721-2.254-7.549Z"/><path class="cls-38" d="M333.4,164.622l-.567-.7a2.548,2.548,0,0,1-.529-2.072l.06-1.567a10.026,10.026,0,0,0,1.006-1.054c.4-.489.571-.786.663-.752s.1.4-.3,1.966a21.361,21.361,0,0,0,2.632-1.351c1.157-.7,2.11-1.434,2.743-1.136.077.036.335.158.364.378.036.27-.3.491-.324.509.127.032.31.1.358.239.076.225-.231.517-.444.7-.9.791-3.18,2.346-3.736,2.724l.121.885Z"/><path class="cls-40" d="M321.316,197.7a97.838,97.838,0,0,0,9.816-3.973c.229-.185.454-.379.454-.379l.1-.09.111-.1c2.015-1.789,3.644-5.806,3.644-5.806a66.487,66.487,0,0,0,2.286-6.629,35.962,35.962,0,0,1-1.686-5.464c-.825-3.713-.712-6.056-2.375-9.084a14.8,14.8,0,0,0-1.365-2.056l3.213-1.5a29.37,29.37,0,0,1,3.067,3.916,30.139,30.139,0,0,1,4.384,11.031,32.081,32.081,0,0,1-3.384,15.515,31.046,31.046,0,0,1-4.441,6.515,22.66,22.66,0,0,0,.372,4.235,23.012,23.012,0,0,0,2.975,7.772l-11.964,3.719c1.017-2.216.837-3.61.473-4.48-.814-1.947-2.983-2.3-3.789-4.661a5.327,5.327,0,0,1-.222-2.383,19.261,19.261,0,0,1-13.511-3.938c-8.037-6.436-6.881-16.956-6.8-17.6l4.305,1.02a17.787,17.787,0,0,0,.7,6.653C309.706,195.692,316.156,199.238,321.316,197.7Z"/><path class="cls-38" d="M323.032,187.405a3.238,3.238,0,0,0,.5.113,3.439,3.439,0,0,1,1.38.476c.727.507.252,1.49.878,2.912a4.689,4.689,0,0,1,.357,1.144,4.5,4.5,0,0,1,.063.57,10.651,10.651,0,0,0,1.378,3.464l-.676-.185-2-.767c-1.438-.959-1.756-1.109-1.761-1.791-.006-.818-.011-2.246-.058-2.3-.467-.449-1.066-.536-.606-1.087.262-.314.463-.54.533-.6C323.24,189.145,323.391,188.663,323.032,187.405Z"/><path class="cls-35" d="M324.866,187.957a19.879,19.879,0,0,0,1.1,8.231q.047.129.094.255a5.832,5.832,0,0,0,8.4,3.029q.159-.1.318-.2l.054-.037a3.791,3.791,0,0,0,.613-5.672,14.378,14.378,0,0,1-2.176-3.147c-1.431-2.821-1.23-4.809-3.134-5.92a7.055,7.055,0,0,0-3.924-.664,3.69,3.69,0,0,0-2.007.59,3.906,3.906,0,0,0-1.1,1.286,4.121,4.121,0,0,0-.484,1.686,6.333,6.333,0,0,1,2.243.563Z"/></g></g></g></svg>